<?xml version="1.0" encoding="utf-8"?>
<!-- Generator: Adobe Illustrator 14.0.0, SVG Export Plug-In . SVG Version: 6.00 Build 43363)  -->
<!DOCTYPE svg PUBLIC "-//W3C//DTD SVG 1.1//EN" "http://www.w3.org/Graphics/SVG/1.1/DTD/svg11.dtd">
<svg version="1.1" id="Layer_1" xmlns="http://www.w3.org/2000/svg" xmlns:xlink="http://www.w3.org/1999/xlink" x="0px" y="0px"
	 width="600px" height="600px" viewBox="0 0 600 600" enable-background="new 0 0 600 600" xml:space="preserve">
<rect x="50" y="20" fill="#FBFBFB" width="530" height="530"/>
<path fill="none" stroke="#EDEDED" stroke-width="2" d="M50,497h530 M50,444h530 M50,391h530 M50,338h530 M50,285h530 M50,232h530
	 M50,179h530 M50,126h530 M50,73h530 M315,550V20 M261.829,550V20 M155.829,550V20 M209,550V20 M527.171,550V20 M474,550V20
	 M368,550V20 M421.171,550V20 M102.658,550V20 M50,20h530 M579.829,550V20"/>
<g>
	<defs>
		<rect id="SVGID_1_" x="50" y="20" width="530" height="530"/>
	</defs>
	<clipPath id="SVGID_2_">
		<use xlink:href="#SVGID_1_"  overflow="visible"/>
	</clipPath>
	
		<path clip-path="url(#SVGID_2_)" fill="none" stroke="#A8A8A8" stroke-width="4" stroke-linecap="round" stroke-linejoin="round" stroke-dasharray="0,8" d="
		M50,550L580,20"/>
	<path clip-path="url(#SVGID_2_)" fill="none" stroke="#DD4780" stroke-width="4" d="M50,550l13.25-0.158l13.25-0.569l13.25-1.048
		l13.25-1.568l13.25-2.12l13.25-2.696l13.25-3.294l13.25-3.911l13.25-4.545l13.25-5.194l13.25-5.856l13.25-6.531l13.25-7.22
		l13.25-7.917l13.25-8.627l13.25-9.345l13.25-10.073l13.25-10.81l13.25-11.556L315,434.652l13.25-13.07l13.25-13.839l13.25-14.615
		L368,377.73l13.25-16.188l13.25-16.982l13.25-17.786L421,308.18l13.25-19.408l13.25-20.228l13.25-21.054L474,225.605l13.25-22.721
		l6.625-11.676l6.625-11.887l6.625-12.098l6.625-12.311l6.625-12.523L527,129.651l6.625-12.951l11.594-23.182l8.695-17.819
		l6.521-13.609l9.782-20.808L580,20"/>
	<path clip-path="url(#SVGID_2_)" fill="none" stroke="#DD4780" stroke-width="4" stroke-dasharray="21,6" d="M50,550l0.414-20.508
		l1.656-22.113l3.312-23.182l3.312-16.028l6.625-24.028l6.625-18.784l6.625-15.88l6.625-13.973l6.625-12.599l13.25-22.269
		l13.25-19.496l13.25-17.525l13.25-16.031l13.25-14.849l13.25-13.886l13.25-13.081l13.25-12.396l13.25-11.803l13.25-11.285
		l13.25-10.826l13.25-10.416l13.25-10.047l13.25-9.714l13.25-9.41l13.25-9.13l13.25-8.875l13.25-8.637l13.25-8.417l13.25-8.213
		l13.25-8.021l13.25-7.842l13.25-7.674l13.25-7.516l13.25-7.366l13.25-7.225l13.25-7.091l13.25-6.963l13.25-6.843l13.25-6.728
		l13.25-6.618l13.25-6.513l13.25-6.413l12.732-6.072l19.099-8.949L580,20"/>
</g>
<g enable-background="new    ">
	<path fill="#AA1D5D" stroke="#AA1D5D" stroke-width="0.48" stroke-linecap="round" stroke-miterlimit="50" d="M469.377,395.152
		c-0.893,0.461-2.764,0.921-5.125,0.921c-5.471,0-9.56-3.455-9.56-9.847c0-6.104,4.118-10.193,10.136-10.193
		c2.39,0,3.944,0.519,4.606,0.864l-0.633,2.044c-0.922-0.461-2.274-0.806-3.888-0.806c-4.549,0-7.572,2.907-7.572,8.004
		c0,4.78,2.735,7.803,7.429,7.803c1.555,0,3.109-0.316,4.117-0.806L469.377,395.152z"/>
	<path fill="#AA1D5D" stroke="#AA1D5D" stroke-width="0.48" stroke-linecap="round" stroke-miterlimit="50" d="M474.708,376.609
		c1.267-0.23,3.109-0.403,4.809-0.403c2.678,0,4.434,0.519,5.614,1.584c0.95,0.863,1.526,2.188,1.526,3.714
		c0,2.534-1.612,4.232-3.628,4.924v0.087c1.469,0.518,2.361,1.899,2.821,3.915c0.634,2.707,1.095,4.578,1.497,5.327h-2.591
		c-0.316-0.576-0.749-2.217-1.267-4.636c-0.576-2.678-1.642-3.686-3.916-3.771h-2.361v8.407h-2.505V376.609z M477.213,385.449h2.562
		c2.678,0,4.377-1.469,4.377-3.686c0-2.506-1.814-3.6-4.463-3.6c-1.21,0-2.045,0.086-2.477,0.201V385.449z"/>
	<path fill="#AA1D5D" stroke="#AA1D5D" stroke-width="0.48" stroke-linecap="round" stroke-miterlimit="50" d="M496.307,378.48
		h-5.902v-2.13h14.367v2.13h-5.932v17.276h-2.533V378.48z"/>
	<path fill="#AA1D5D" d="M439.294,429.201c0,4.031-0.828,6.443-2.484,7.991c-1.728,1.548-4.175,2.088-6.371,2.088
		c-2.088,0-4.392-0.504-5.795-1.44l0.792-2.447c1.151,0.756,2.951,1.403,5.111,1.403c3.239,0,5.615-1.691,5.615-6.119v-1.907h-0.072
		c-0.936,1.619-2.844,2.915-5.543,2.915c-4.319,0-7.415-3.671-7.415-8.495c0-5.902,3.852-9.215,7.883-9.215
		c3.023,0,4.644,1.548,5.436,2.988h0.071l0.108-2.628h2.808c-0.108,1.224-0.144,2.664-0.144,4.751V429.201z M436.126,421.21
		c0-0.54-0.036-1.008-0.18-1.403c-0.576-1.872-2.088-3.384-4.428-3.384c-3.023,0-5.184,2.556-5.184,6.587
		c0,3.42,1.764,6.264,5.147,6.264c1.979,0,3.743-1.225,4.392-3.24c0.18-0.54,0.252-1.151,0.252-1.691V421.21z"/>
	<path fill="#AA1D5D" d="M456.754,427.581c0,1.512,0.072,2.988,0.252,4.176h-2.844l-0.252-2.195h-0.108
		c-0.972,1.367-2.843,2.591-5.327,2.591c-3.527,0-5.327-2.483-5.327-5.003c0-4.212,3.743-6.516,10.475-6.479v-0.359
		c0-1.404-0.396-4.032-3.959-3.996c-1.656,0-3.348,0.469-4.572,1.296l-0.72-2.123c1.44-0.9,3.563-1.513,5.76-1.513
		c5.327,0,6.623,3.636,6.623,7.092V427.581z M453.694,422.866c-3.456-0.072-7.379,0.54-7.379,3.923c0,2.088,1.367,3.024,2.951,3.024
		c2.304,0,3.779-1.44,4.283-2.916c0.108-0.36,0.145-0.72,0.145-1.008V422.866z"/>
	<path fill="#AA1D5D" d="M461.867,419.051c0-1.836-0.072-3.276-0.145-4.716h2.771l0.145,2.844h0.107
		c0.973-1.656,2.592-3.204,5.508-3.204c2.34,0,4.14,1.44,4.896,3.492h0.072c0.539-1.008,1.26-1.728,1.979-2.268
		c1.044-0.792,2.159-1.225,3.815-1.225c2.34,0,5.759,1.513,5.759,7.56v10.223h-3.095v-9.827c0-3.383-1.261-5.363-3.78-5.363
		c-1.836,0-3.203,1.332-3.779,2.844c-0.144,0.468-0.252,1.008-0.252,1.584v10.763h-3.096v-10.438c0-2.771-1.224-4.752-3.636-4.752
		c-1.943,0-3.419,1.584-3.923,3.168c-0.181,0.432-0.252,1.008-0.252,1.548v10.475h-3.096V419.051z"/>
	<path fill="#AA1D5D" d="M491.891,419.051c0-1.836-0.072-3.276-0.145-4.716h2.771l0.145,2.844h0.107
		c0.973-1.656,2.592-3.204,5.508-3.204c2.34,0,4.14,1.44,4.896,3.492h0.072c0.539-1.008,1.26-1.728,1.979-2.268
		c1.044-0.792,2.159-1.225,3.815-1.225c2.34,0,5.759,1.513,5.759,7.56v10.223h-3.095v-9.827c0-3.383-1.261-5.363-3.78-5.363
		c-1.836,0-3.203,1.332-3.779,2.844c-0.144,0.468-0.252,1.008-0.252,1.584v10.763h-3.096v-10.438c0-2.771-1.224-4.752-3.636-4.752
		c-1.943,0-3.419,1.584-3.923,3.168c-0.181,0.432-0.252,1.008-0.252,1.548v10.475h-3.096V419.051z"/>
	<path fill="#AA1D5D" d="M534.153,427.581c0,1.512,0.072,2.988,0.252,4.176h-2.844l-0.252-2.195h-0.108
		c-0.972,1.367-2.843,2.591-5.327,2.591c-3.527,0-5.327-2.483-5.327-5.003c0-4.212,3.743-6.516,10.475-6.479v-0.359
		c0-1.404-0.396-4.032-3.959-3.996c-1.656,0-3.348,0.469-4.572,1.296l-0.72-2.123c1.44-0.9,3.563-1.513,5.76-1.513
		c5.327,0,6.623,3.636,6.623,7.092V427.581z M531.094,422.866c-3.456-0.072-7.379,0.54-7.379,3.923c0,2.088,1.367,3.024,2.951,3.024
		c2.304,0,3.779-1.44,4.283-2.916c0.108-0.36,0.145-0.72,0.145-1.008V422.866z"/>
	<path fill="#AA1D5D" d="M460.212,467.757v-1.728l1.764-1.224c5.399-3.564,8.062-6.012,8.062-8.928c0-2.339-1.619-3.527-3.888-3.527
		c-1.835,0-3.635,0.864-4.859,1.764l-0.863-2.052c1.296-0.972,3.636-2.231,6.551-2.231c3.636,0,6.228,2.052,6.228,5.615
		c0,3.348-2.592,5.831-6.371,8.495l-1.836,1.332v0.107c0.899-0.107,2.016-0.144,2.951-0.144h6.516v2.52H460.212z"/>
	<path fill="#AA1D5D" d="M477.348,465.885c0-1.296,0.899-2.268,2.159-2.268s2.124,0.937,2.124,2.268
		c0,1.296-0.864,2.268-2.195,2.268C478.211,468.152,477.348,467.181,477.348,465.885z"/>
	<path fill="#AA1D5D" d="M483.791,467.757v-1.728l1.764-1.224c5.399-3.564,8.062-6.012,8.062-8.928c0-2.339-1.619-3.527-3.888-3.527
		c-1.835,0-3.635,0.864-4.859,1.764l-0.863-2.052c1.296-0.972,3.636-2.231,6.551-2.231c3.636,0,6.228,2.052,6.228,5.615
		c0,3.348-2.592,5.831-6.371,8.495l-1.836,1.332v0.107c0.899-0.107,2.016-0.144,2.951-0.144h6.516v2.52H483.791z"/>
</g>
<path fill="none" d=""/>
<path fill="#E9967A" d="M315,423.652"/>
<path fill="none" d=""/>
<path fill="#E9967A" d="M165.348,296"/>
<g>
	<g enable-background="new    ">
		<path fill="#6B1400" d="M272.058,269.71c0-4.71,3-7.589,6.75-7.589c3.72,0,6.75,2.76,6.75,7.589c0,4.74-3,7.62-6.78,7.62
			C275.088,277.33,272.058,274.57,272.058,269.71z M283.007,269.71c0-3.21-1.56-5.579-4.2-5.579c-2.64,0-4.2,2.369-4.2,5.579
			c0,3.24,1.56,5.61,4.229,5.61C281.447,275.32,283.007,272.95,283.007,269.71z"/>
		<path fill="#6B1400" d="M288.318,275.44c0-1.08,0.75-1.891,1.8-1.891s1.77,0.78,1.77,1.891c0,1.079-0.72,1.89-1.83,1.89
			C289.038,277.33,288.318,276.52,288.318,275.44z"/>
		<path fill="#6B1400" d="M294.377,278.02c0.69,0.21,1.92,0.391,3.06,0.391c2.58,0,4.92-1.351,4.92-3.87
			c0-0.84-0.33-1.62-0.931-2.189c-1.17-1.141-3.54-1.5-6.81-1.29l1.53-8.61h8.61l-0.33,2.16h-6.51l-0.87,4.5
			c2.49-0.06,5.04,0.33,6.6,1.83c0.9,0.87,1.381,2.1,1.381,3.39c0,3.66-3.09,6.09-7.56,6.09c-1.32,0-2.67-0.21-3.42-0.51
			L294.377,278.02z"/>
	</g>
	<g enable-background="new    ">
		<path fill="#6B1400" d="M241.599,427.362c0-4.71,3-7.589,6.75-7.589c3.72,0,6.75,2.76,6.75,7.589c0,4.74-3,7.62-6.779,7.62
			C244.628,434.982,241.599,432.223,241.599,427.362z M252.548,427.362c0-3.21-1.56-5.579-4.2-5.579c-2.64,0-4.2,2.369-4.2,5.579
			c0,3.24,1.56,5.61,4.229,5.61C250.988,432.973,252.548,430.603,252.548,427.362z"/>
		<path fill="#6B1400" d="M257.858,433.093c0-1.08,0.75-1.891,1.8-1.891s1.77,0.78,1.77,1.891c0,1.079-0.72,1.89-1.83,1.89
			C258.578,434.982,257.858,434.172,257.858,433.093z"/>
		<path fill="#6B1400" d="M263.228,434.652v-1.439l1.47-1.021c4.5-2.97,6.72-5.01,6.72-7.439c0-1.95-1.35-2.94-3.24-2.94
			c-1.53,0-3.03,0.721-4.05,1.471l-0.72-1.71c1.08-0.811,3.03-1.86,5.46-1.86c3.03,0,5.189,1.71,5.189,4.68
			c0,2.79-2.16,4.86-5.31,7.08l-1.53,1.109v0.091c0.75-0.091,1.68-0.12,2.46-0.12h5.43v2.1H263.228z"/>
		<path fill="#6B1400" d="M281.317,434.652v-12.239h-0.06l-4.05,1.859l-0.48-1.979l4.92-2.19h2.19v14.55H281.317z"/>
		<path fill="#6B1400" d="M297.098,425.143c2.28,0.811,3.87,2.4,3.87,4.53c0,3.239-2.94,5.31-6.54,5.31
			c-3.81,0-6.39-2.07-6.39-4.979c0-2.16,1.53-3.75,3.75-4.74v-0.09c-1.68-0.72-3.03-1.98-3.03-3.87c0-2.88,2.58-4.859,5.91-4.859
			c3.39,0,5.609,2.01,5.609,4.529c0,1.74-1.02,3.061-3.149,4.08L297.098,425.143z M298.268,429.912c0-1.89-1.53-3.149-4.26-3.869
			c-1.98,0.66-3.33,2.04-3.33,3.72c0,1.95,1.44,3.33,3.81,3.33C296.588,433.093,298.268,431.832,298.268,429.912z M291.308,421.093
			c0,1.62,1.35,2.64,3.63,3.24c1.59-0.48,2.88-1.561,2.88-3.24c0-1.89-1.56-2.85-3.18-2.85
			C292.808,418.243,291.308,419.323,291.308,421.093z"/>
	</g>
	<g enable-background="new    ">
		<path fill="#6B1400" d="M90.947,427.362c0-4.71,3-7.589,6.75-7.589c3.72,0,6.75,2.76,6.75,7.589c0,4.74-3,7.62-6.779,7.62
			C93.977,434.982,90.947,432.223,90.947,427.362z M101.896,427.362c0-3.21-1.56-5.579-4.2-5.579c-2.64,0-4.2,2.369-4.2,5.579
			c0,3.24,1.56,5.61,4.229,5.61C100.336,432.973,101.896,430.603,101.896,427.362z"/>
		<path fill="#6B1400" d="M107.207,433.093c0-1.08,0.75-1.891,1.8-1.891s1.77,0.78,1.77,1.891c0,1.079-0.72,1.89-1.83,1.89
			C107.926,434.982,107.207,434.172,107.207,433.093z"/>
		<path fill="#6B1400" d="M112.576,434.652v-1.439l1.47-1.021c4.5-2.97,6.72-5.01,6.72-7.439c0-1.95-1.35-2.94-3.24-2.94
			c-1.53,0-3.03,0.721-4.05,1.471l-0.72-1.71c1.08-0.811,3.03-1.86,5.46-1.86c3.03,0,5.189,1.71,5.189,4.68
			c0,2.79-2.16,4.86-5.31,7.08l-1.53,1.109v0.091c0.75-0.091,1.68-0.12,2.46-0.12h5.43v2.1H112.576z"/>
		<path fill="#6B1400" d="M130.666,434.652v-12.239h-0.06l-4.05,1.859l-0.48-1.979l4.92-2.19h2.19v14.55H130.666z"/>
		<path fill="#6B1400" d="M146.446,425.143c2.28,0.811,3.87,2.4,3.87,4.53c0,3.239-2.94,5.31-6.54,5.31
			c-3.81,0-6.39-2.07-6.39-4.979c0-2.16,1.53-3.75,3.75-4.74v-0.09c-1.68-0.72-3.03-1.98-3.03-3.87c0-2.88,2.58-4.859,5.91-4.859
			c3.39,0,5.609,2.01,5.609,4.529c0,1.74-1.02,3.061-3.149,4.08L146.446,425.143z M147.616,429.912c0-1.89-1.53-3.149-4.26-3.869
			c-1.98,0.66-3.33,2.04-3.33,3.72c0,1.95,1.44,3.33,3.81,3.33C145.936,433.093,147.616,431.832,147.616,429.912z M140.656,421.093
			c0,1.62,1.35,2.64,3.63,3.24c1.59-0.48,2.88-1.561,2.88-3.24c0-1.89-1.56-2.85-3.18-2.85
			C142.156,418.243,140.656,419.323,140.656,421.093z"/>
	</g>
	<g enable-background="new    ">
		<path fill="#6B1400" d="M117.406,269.71c0-4.71,3-7.589,6.75-7.589c3.72,0,6.75,2.76,6.75,7.589c0,4.74-3,7.62-6.78,7.62
			C120.436,277.33,117.406,274.57,117.406,269.71z M128.355,269.71c0-3.21-1.56-5.579-4.2-5.579c-2.64,0-4.2,2.369-4.2,5.579
			c0,3.24,1.56,5.61,4.229,5.61C126.795,275.32,128.355,272.95,128.355,269.71z"/>
		<path fill="#6B1400" d="M133.666,275.44c0-1.08,0.75-1.891,1.8-1.891s1.77,0.78,1.77,1.891c0,1.079-0.72,1.89-1.83,1.89
			C134.386,277.33,133.666,276.52,133.666,275.44z"/>
		<path fill="#6B1400" d="M139.726,278.02c0.69,0.21,1.92,0.391,3.06,0.391c2.58,0,4.92-1.351,4.92-3.87
			c0-0.84-0.33-1.62-0.93-2.189c-1.17-1.141-3.54-1.5-6.81-1.29l1.53-8.61h8.61l-0.33,2.16h-6.51l-0.87,4.5
			c2.49-0.06,5.04,0.33,6.6,1.83c0.9,0.87,1.38,2.1,1.38,3.39c0,3.66-3.09,6.09-7.56,6.09c-1.32,0-2.67-0.21-3.42-0.51
			L139.726,278.02z"/>
	</g>
</g>
<g>
	<g>
		<g enable-background="new    ">
			<path d="M43.979,570.682c0-4.082,2.6-6.578,5.85-6.578c3.224,0,5.851,2.393,5.851,6.578c0,4.108-2.601,6.604-5.876,6.604
				C46.605,577.286,43.979,574.894,43.979,570.682z M53.469,570.682c0-2.782-1.352-4.836-3.64-4.836s-3.64,2.054-3.64,4.836
				c0,2.809,1.352,4.862,3.667,4.862C52.117,575.544,53.469,573.49,53.469,570.682z"/>
		</g>
		<g enable-background="new    ">
			<path d="M147.34,575.648c0-0.937,0.65-1.639,1.56-1.639s1.534,0.676,1.534,1.639c0,0.936-0.624,1.638-1.586,1.638
				C147.964,577.286,147.34,576.584,147.34,575.648z"/>
			<path d="M153.606,577v-1.248l1.274-0.884c3.9-2.574,5.824-4.343,5.824-6.448c0-1.69-1.17-2.549-2.808-2.549
				c-1.326,0-2.626,0.625-3.51,1.274l-0.624-1.481c0.936-0.702,2.626-1.612,4.732-1.612c2.626,0,4.499,1.481,4.499,4.056
				c0,2.418-1.872,4.213-4.602,6.137l-1.326,0.962v0.078c0.65-0.078,1.456-0.104,2.132-0.104h4.706V577H153.606z"/>
		</g>
		<g enable-background="new    ">
			<path d="M253.34,575.648c0-0.937,0.65-1.639,1.56-1.639s1.534,0.676,1.534,1.639c0,0.936-0.624,1.638-1.586,1.638
				C253.964,577.286,253.34,576.584,253.34,575.648z"/>
			<path d="M268.446,575.7v4.342h-2.132V575.7h-7.592v-1.482l7.254-10.011h2.47v9.751h2.366v1.742H268.446z M266.314,568.731
				c0-0.832,0-1.612,0.078-2.444l-0.104-0.025c-0.416,0.832-0.91,1.689-1.404,2.444l-3.9,5.174l0.026,0.078h5.304V568.731z"/>
		</g>
		<g enable-background="new    ">
			<path d="M359.34,575.648c0-0.937,0.65-1.639,1.561-1.639s1.534,0.676,1.534,1.639c0,0.936-0.624,1.638-1.586,1.638
				C359.965,577.286,359.34,576.584,359.34,575.648z"/>
			<path d="M375.513,562.934c-4.681,0.286-7.124,2.756-7.696,5.694l0.078,0.025c0.65-0.936,1.976-1.897,3.796-1.897
				c2.626,0,4.836,1.872,4.836,4.966c0,3.511-2.704,5.564-5.408,5.564c-3.458,0-5.772-2.574-5.772-6.423
				c0-5.382,3.797-9.282,10.011-9.62L375.513,562.934z M374.265,571.852c0-2.132-1.274-3.484-3.146-3.484
				c-1.196,0-2.132,0.599-2.626,1.118c-0.624,0.65-0.832,1.301-0.832,2.158c0,2.106,1.352,3.9,3.484,3.9
				C372.679,575.544,374.265,574.322,374.265,571.852z"/>
		</g>
		<g enable-background="new    ">
			<path d="M465.34,575.648c0-0.937,0.65-1.639,1.561-1.639s1.534,0.676,1.534,1.639c0,0.936-0.624,1.638-1.586,1.638
				C465.965,577.286,465.34,576.584,465.34,575.648z"/>
			<path d="M478.99,568.758c1.977,0.702,3.354,2.08,3.354,3.926c0,2.809-2.548,4.603-5.669,4.603c-3.302,0-5.537-1.794-5.537-4.316
				c0-1.872,1.326-3.25,3.25-4.108v-0.078c-1.457-0.623-2.627-1.716-2.627-3.354c0-2.496,2.236-4.212,5.123-4.212
				c2.938,0,4.861,1.741,4.861,3.926c0,1.508-0.884,2.652-2.729,3.536L478.99,568.758z M480.004,572.892
				c0-1.638-1.325-2.729-3.691-3.354c-1.717,0.571-2.887,1.768-2.887,3.224c0,1.69,1.248,2.887,3.303,2.887
				C478.549,575.648,480.004,574.556,480.004,572.892z M473.973,565.248c0,1.403,1.17,2.287,3.146,2.808
				c1.378-0.416,2.496-1.353,2.496-2.808c0-1.639-1.352-2.471-2.756-2.471C475.272,562.777,473.973,563.714,473.973,565.248z"/>
		</g>
		<g enable-background="new    ">
			<path d="M580.245,577v-10.687h-0.052l-4.836,2.158l-0.391-1.69l5.564-2.392h1.898V577H580.245z"/>
		</g>
	</g>
	<g>
		<g enable-background="new    ">
			<path d="M23.918,549.182c0-4.082,2.6-6.578,5.85-6.578c3.224,0,5.851,2.393,5.851,6.578c0,4.108-2.601,6.604-5.876,6.604
				C26.544,555.786,23.918,553.394,23.918,549.182z M33.408,549.182c0-2.782-1.352-4.836-3.64-4.836s-3.64,2.054-3.64,4.836
				c0,2.809,1.352,4.862,3.667,4.862C32.056,554.044,33.408,551.99,33.408,549.182z"/>
		</g>
		<g enable-background="new    ">
			<path d="M18.328,448.148c0-0.937,0.65-1.639,1.56-1.639s1.534,0.676,1.534,1.639c0,0.936-0.624,1.638-1.586,1.638
				C18.952,449.786,18.328,449.084,18.328,448.148z"/>
			<path d="M24.594,449.5v-1.248l1.274-0.884c3.9-2.574,5.824-4.343,5.824-6.448c0-1.69-1.17-2.549-2.808-2.549
				c-1.326,0-2.626,0.625-3.51,1.274l-0.624-1.481c0.936-0.702,2.626-1.612,4.732-1.612c2.626,0,4.499,1.481,4.499,4.056
				c0,2.418-1.872,4.213-4.602,6.137l-1.326,0.962v0.078c0.65-0.078,1.456-0.104,2.132-0.104h4.706v1.82H24.594z"/>
		</g>
		<g enable-background="new    ">
			<path d="M18.328,342.148c0-0.937,0.65-1.639,1.56-1.639s1.534,0.676,1.534,1.639c0,0.936-0.624,1.638-1.586,1.638
				C18.952,343.786,18.328,343.084,18.328,342.148z"/>
			<path d="M33.434,342.2v4.342h-2.132V342.2H23.71v-1.482l7.254-10.011h2.47v9.751H35.8v1.742H33.434z M31.302,335.231
				c0-0.832,0-1.612,0.078-2.444l-0.104-0.025c-0.416,0.832-0.91,1.689-1.404,2.444l-3.9,5.174l0.026,0.078h5.304V335.231z"/>
		</g>
		<g enable-background="new    ">
			<path d="M18.328,236.148c0-0.937,0.65-1.639,1.56-1.639s1.534,0.676,1.534,1.639c0,0.936-0.624,1.638-1.586,1.638
				C18.952,237.786,18.328,237.084,18.328,236.148z"/>
			<path d="M34.5,223.434c-4.68,0.286-7.125,2.756-7.696,5.694l0.078,0.025c0.65-0.936,1.976-1.897,3.796-1.897
				c2.626,0,4.836,1.872,4.836,4.966c0,3.511-2.704,5.564-5.408,5.564c-3.458,0-5.772-2.574-5.772-6.423
				c0-5.382,3.796-9.282,10.01-9.62L34.5,223.434z M33.252,232.352c0-2.132-1.274-3.484-3.146-3.484
				c-1.196,0-2.132,0.599-2.626,1.118c-0.624,0.65-0.832,1.301-0.832,2.158c0,2.106,1.352,3.9,3.484,3.9
				C31.667,236.044,33.252,234.822,33.252,232.352z"/>
		</g>
		<g enable-background="new    ">
			<path d="M18.328,130.148c0-0.937,0.65-1.639,1.56-1.639s1.534,0.676,1.534,1.639c0,0.936-0.624,1.638-1.586,1.638
				C18.952,131.786,18.328,131.084,18.328,130.148z"/>
			<path d="M31.978,123.258c1.977,0.702,3.354,2.08,3.354,3.926c0,2.809-2.548,4.603-5.668,4.603c-3.302,0-5.538-1.794-5.538-4.316
				c0-1.872,1.326-3.25,3.25-4.108v-0.078c-1.456-0.623-2.626-1.716-2.626-3.354c0-2.496,2.236-4.212,5.122-4.212
				c2.938,0,4.862,1.741,4.862,3.926c0,1.508-0.884,2.652-2.73,3.536L31.978,123.258z M32.992,127.392
				c0-1.638-1.326-2.729-3.692-3.354c-1.716,0.571-2.886,1.768-2.886,3.224c0,1.69,1.248,2.887,3.302,2.887
				C31.536,130.148,32.992,129.056,32.992,127.392z M26.96,119.748c0,1.403,1.17,2.287,3.146,2.808
				c1.378-0.416,2.496-1.353,2.496-2.808c0-1.639-1.352-2.471-2.756-2.471C28.26,117.277,26.96,118.214,26.96,119.748z"/>
		</g>
		<g enable-background="new    ">
			<path d="M30.184,25.5V14.813h-0.052l-4.836,2.158l-0.39-1.69l5.564-2.392h1.898V25.5H30.184z"/>
		</g>
	</g>
</g>
<path fill="none" stroke="#000000" stroke-width="2" d="M50,550v5 M103,550v5 M156,550v5 M209,550v5 M262,550v5 M315,550v5 M368,550
	v5 M421,550v5 M474,550v5 M527,550v5 M580,550v5 M50,550h-5 M50,497h-5 M50,444h-5 M50,391h-5 M50,338h-5 M50,285h-5 M50,232h-5
	 M50,179h-5 M50,126h-5 M50,73h-5 M50,20h-5"/>
<path fill="none" stroke="#000000" stroke-width="2" stroke-linecap="square" d="M50,20v530 M50,550h530"/>
<g>
	<g>
		<line fill="none" stroke="#822F12" stroke-width="3" x1="165.348" y1="434.652" x2="165.348" y2="300"/>
		<polygon fill="#822F12" points="169.652,302.973 165.295,286.711 160.938,302.972 		"/>
		<circle fill="#822F12" cx="165.347" cy="434.652" r="5.639"/>
	</g>
</g>
<g>
	<g>
		<line fill="none" stroke="#822F12" stroke-width="3" x1="315" y1="287.128" x2="315" y2="421.78"/>
		<polygon fill="#822F12" points="310.696,418.808 315.053,435.069 319.41,418.808 		"/>
		<circle fill="#822F12" cx="315" cy="287.128" r="5.639"/>
	</g>
</g>
<g>
	<path fill="#AA1D5D" d="M125.554,127.614c0,3.763-0.773,6.015-2.318,7.459c-1.613,1.445-3.898,1.949-5.947,1.949
		c-1.949,0-4.099-0.471-5.41-1.344l0.739-2.285c1.075,0.706,2.755,1.311,4.771,1.311c3.024,0,5.242-1.579,5.242-5.712v-1.781h-0.067
		c-0.874,1.512-2.654,2.721-5.174,2.721c-4.032,0-6.921-3.427-6.921-7.929c0-5.511,3.595-8.602,7.358-8.602
		c2.822,0,4.334,1.445,5.073,2.789h0.067l0.101-2.453h2.621c-0.101,1.142-0.134,2.486-0.134,4.435V127.614z M122.597,120.155
		c0-0.504-0.034-0.941-0.168-1.311c-0.538-1.747-1.949-3.158-4.133-3.158c-2.822,0-4.838,2.386-4.838,6.149
		c0,3.192,1.646,5.846,4.805,5.846c1.848,0,3.495-1.143,4.1-3.024c0.168-0.504,0.235-1.075,0.235-1.579V120.155z"/>
	<path fill="#AA1D5D" d="M141.85,126.103c0,1.411,0.067,2.789,0.235,3.897h-2.654l-0.235-2.05h-0.101
		c-0.907,1.277-2.654,2.419-4.973,2.419c-3.293,0-4.973-2.318-4.973-4.67c0-3.931,3.495-6.082,9.778-6.048v-0.336
		c0-1.311-0.37-3.763-3.696-3.73c-1.545,0-3.125,0.437-4.267,1.21l-0.672-1.982c1.344-0.84,3.327-1.411,5.376-1.411
		c4.973,0,6.183,3.394,6.183,6.619V126.103z M138.994,121.701c-3.226-0.067-6.888,0.504-6.888,3.663
		c0,1.949,1.277,2.822,2.755,2.822c2.15,0,3.528-1.344,3.998-2.722c0.101-0.336,0.135-0.672,0.135-0.94V121.701z"/>
	<path fill="#AA1D5D" d="M146.621,118.139c0-1.713-0.067-3.058-0.134-4.401h2.587l0.134,2.654h0.101
		c0.907-1.545,2.419-2.99,5.141-2.99c2.184,0,3.864,1.344,4.569,3.259h0.067c0.504-0.94,1.176-1.613,1.848-2.117
		c0.975-0.739,2.016-1.142,3.562-1.142c2.184,0,5.376,1.411,5.376,7.056V130h-2.89v-9.173c0-3.158-1.176-5.006-3.528-5.006
		c-1.713,0-2.99,1.243-3.528,2.654c-0.134,0.437-0.235,0.941-0.235,1.479V130h-2.889v-9.744c0-2.587-1.143-4.435-3.394-4.435
		c-1.814,0-3.192,1.479-3.662,2.957c-0.168,0.403-0.235,0.94-0.235,1.445V130h-2.89V118.139z"/>
	<path fill="#AA1D5D" d="M174.643,118.139c0-1.713-0.067-3.058-0.134-4.401h2.587l0.134,2.654h0.101
		c0.907-1.545,2.419-2.99,5.141-2.99c2.184,0,3.864,1.344,4.569,3.259h0.067c0.504-0.94,1.176-1.613,1.848-2.117
		c0.975-0.739,2.016-1.142,3.562-1.142c2.184,0,5.376,1.411,5.376,7.056V130h-2.89v-9.173c0-3.158-1.176-5.006-3.528-5.006
		c-1.713,0-2.99,1.243-3.528,2.654c-0.134,0.437-0.235,0.941-0.235,1.479V130h-2.889v-9.744c0-2.587-1.143-4.435-3.394-4.435
		c-1.814,0-3.192,1.479-3.662,2.957c-0.168,0.403-0.235,0.94-0.235,1.445V130h-2.89V118.139z"/>
	<path fill="#AA1D5D" d="M214.09,126.103c0,1.411,0.067,2.789,0.235,3.897h-2.654l-0.235-2.05h-0.101
		c-0.907,1.277-2.654,2.419-4.973,2.419c-3.293,0-4.973-2.318-4.973-4.67c0-3.931,3.495-6.082,9.778-6.048v-0.336
		c0-1.311-0.37-3.763-3.696-3.73c-1.546,0-3.125,0.437-4.268,1.21l-0.672-1.982c1.344-0.84,3.326-1.411,5.376-1.411
		c4.973,0,6.183,3.394,6.183,6.619V126.103z M211.233,121.701c-3.226-0.067-6.888,0.504-6.888,3.663
		c0,1.949,1.277,2.822,2.755,2.822c2.15,0,3.528-1.344,3.998-2.722c0.101-0.336,0.134-0.672,0.134-0.94V121.701z"/>
	<path fill="#AA1D5D" d="M105.109,165.429c-0.773,0.37-2.486,0.941-4.67,0.941c-4.906,0-8.098-3.327-8.098-8.299
		c0-5.006,3.427-8.668,8.736-8.668c1.747,0,3.293,0.437,4.099,0.874l-0.672,2.251c-0.706-0.37-1.814-0.772-3.427-0.772
		c-3.729,0-5.746,2.789-5.746,6.148c0,3.763,2.419,6.082,5.645,6.082c1.68,0,2.789-0.403,3.628-0.772L105.109,165.429z"/>
	<path fill="#AA1D5D" d="M123.085,157.734c0,6.015-4.2,8.635-8.098,8.635c-4.368,0-7.795-3.226-7.795-8.366
		c0-5.41,3.595-8.602,8.064-8.602C119.927,149.402,123.085,152.795,123.085,157.734z M110.216,157.902
		c0,3.562,2.016,6.25,4.906,6.25c2.822,0,4.939-2.654,4.939-6.316c0-2.755-1.377-6.216-4.872-6.216
		C111.729,151.619,110.216,154.845,110.216,157.902z"/>
	<path fill="#AA1D5D" d="M126.814,154.811c0-1.915-0.033-3.562-0.134-5.073h2.587l0.134,3.226h0.101
		c0.739-2.184,2.554-3.562,4.536-3.562c0.302,0,0.538,0.033,0.806,0.067v2.789c-0.302-0.067-0.604-0.067-1.008-0.067
		c-2.083,0-3.562,1.545-3.965,3.763c-0.067,0.403-0.101,0.907-0.101,1.377V166h-2.957V154.811z"/>
	<path fill="#AA1D5D" d="M137.936,154.811c0-1.915-0.034-3.562-0.134-5.073h2.587l0.134,3.226h0.101
		c0.739-2.184,2.554-3.562,4.536-3.562c0.302,0,0.538,0.033,0.807,0.067v2.789c-0.303-0.067-0.605-0.067-1.008-0.067
		c-2.083,0-3.562,1.545-3.965,3.763c-0.067,0.403-0.101,0.907-0.101,1.377V166h-2.957V154.811z"/>
	<path fill="#AA1D5D" d="M150.234,158.406c0.067,3.999,2.587,5.645,5.578,5.645c2.117,0,3.427-0.37,4.502-0.84l0.538,2.117
		c-1.042,0.47-2.856,1.042-5.443,1.042c-5.006,0-7.997-3.327-7.997-8.232c0-4.906,2.89-8.736,7.627-8.736
		c5.342,0,6.72,4.637,6.72,7.627c0,0.605-0.034,1.042-0.101,1.377H150.234z M158.903,156.29c0.034-1.848-0.773-4.771-4.099-4.771
		c-3.024,0-4.301,2.722-4.536,4.771H158.903z"/>
	<path fill="#AA1D5D" d="M177.013,165.429c-0.773,0.37-2.486,0.941-4.67,0.941c-4.906,0-8.098-3.327-8.098-8.299
		c0-5.006,3.427-8.668,8.736-8.668c1.747,0,3.293,0.437,4.099,0.874l-0.672,2.251c-0.706-0.37-1.814-0.772-3.427-0.772
		c-3.729,0-5.746,2.789-5.746,6.148c0,3.763,2.419,6.082,5.645,6.082c1.68,0,2.789-0.403,3.628-0.772L177.013,165.429z"/>
	<path fill="#AA1D5D" d="M184.471,145.84v3.898h4.234v2.251h-4.234v8.77c0,2.016,0.571,3.159,2.218,3.159
		c0.807,0,1.277-0.067,1.713-0.202l0.135,2.251c-0.571,0.202-1.479,0.403-2.621,0.403c-1.377,0-2.486-0.47-3.192-1.243
		c-0.806-0.907-1.142-2.352-1.142-4.267v-8.871h-2.52v-2.251h2.52v-3.024L184.471,145.84z"/>
	<path fill="#AA1D5D" d="M195.324,145.168c0,1.008-0.706,1.814-1.882,1.814c-1.075,0-1.781-0.806-1.781-1.814
		c0-1.008,0.739-1.848,1.848-1.848C194.584,143.32,195.324,144.126,195.324,145.168z M192.031,166v-16.262h2.957V166H192.031z"/>
	<path fill="#AA1D5D" d="M214.61,157.734c0,6.015-4.2,8.635-8.098,8.635c-4.368,0-7.795-3.226-7.795-8.366
		c0-5.41,3.595-8.602,8.064-8.602C211.452,149.402,214.61,152.795,214.61,157.734z M201.741,157.902c0,3.562,2.016,6.25,4.906,6.25
		c2.822,0,4.939-2.654,4.939-6.316c0-2.755-1.377-6.216-4.872-6.216C203.253,151.619,201.741,154.845,201.741,157.902z"/>
	<path fill="#AA1D5D" d="M218.339,154.139c0-1.713-0.034-3.058-0.134-4.401h2.621l0.168,2.688h0.067
		c0.807-1.512,2.688-3.024,5.376-3.024c2.251,0,5.746,1.344,5.746,6.921V166h-2.957v-9.375c0-2.621-0.975-4.805-3.763-4.805
		c-1.916,0-3.427,1.377-3.965,3.024c-0.135,0.37-0.202,0.874-0.202,1.378V166h-2.957V154.139z"/>
	<path fill="#AA1D5D" d="M141.113,197.709v-14.212h-0.086l-3.11,1.512l-0.475-2.247l4.061-1.901h2.635v16.847H141.113z
		 M141.329,209.675l16.372-29.029h2.419l-16.372,29.029H141.329z M155.195,207.602l2.722-2.506c3.585-3.326,5.443-5.313,5.443-7.516
		c0-1.685-1.037-3.024-3.283-3.024c-1.512,0-2.808,0.734-3.628,1.339l-0.907-1.987c1.167-0.95,3.11-1.771,5.313-1.771
		c4.061,0,5.702,2.548,5.702,4.838c0,3.283-2.462,5.616-5.746,8.553l-1.296,1.209v0.086h7.344v2.376h-11.664V207.602z"/>
	<path fill="#AA1D5D" d="M169.884,207.516c0-1.167,0.821-1.944,1.9-1.944c1.124,0,1.901,0.777,1.901,1.944
		c0,1.08-0.777,1.944-1.944,1.944C170.661,209.459,169.884,208.595,169.884,207.516z"/>
	<path fill="#AA1D5D" d="M176.494,207.602l2.721-2.506c3.585-3.326,5.443-5.313,5.443-7.516c0-1.685-1.037-3.024-3.283-3.024
		c-1.512,0-2.808,0.734-3.629,1.339l-0.907-1.987c1.167-0.95,3.11-1.771,5.313-1.771c4.061,0,5.702,2.548,5.702,4.838
		c0,3.283-2.462,5.659-5.745,8.553l-1.296,1.209v0.086h7.343v2.376h-11.663V207.602z"/>
</g>
</svg>
